<svg width="551" height="832" viewBox="0 0 551 832" fill="none" xmlns="http://www.w3.org/2000/svg">
<path d="M271.008 227.067C288.032 227.067 300.352 232.667 307.968 243.867C315.584 254.619 319.392 273.211 319.392 299.643C319.392 326.075 309.76 396.187 290.496 509.979C271.68 623.323 262.272 703.067 262.272 749.211C262.272 758.171 262.496 764.891 262.944 769.371C288.48 770.715 317.376 771.387 349.632 771.387C432.96 771.387 485.152 765.563 506.208 753.915C504.864 771.835 501.952 786.171 497.472 796.923C492.992 807.675 485.6 815.515 475.296 820.443C465.44 825.371 455.584 828.283 445.728 829.179C436.32 830.523 421.088 831.195 400.032 831.195C378.976 831.195 336.416 826.491 272.352 817.083C260.256 825.595 247.712 829.851 234.72 829.851C202.464 829.851 186.336 808.123 186.336 764.667C186.336 735.995 195.52 668.347 213.888 561.723C232.704 455.099 242.112 380.059 242.112 336.603C242.112 292.699 237.408 261.339 228 242.523C240.096 232.219 254.432 227.067 271.008 227.067Z" fill="white"/>
<path d="M252.072 196.112C280.296 181.328 310.312 173.936 342.12 173.936C373.928 173.936 399.464 179.536 418.728 190.736C438.44 201.488 448.296 216.944 448.296 237.104C448.296 248.304 446.056 258.832 441.576 268.688C437.544 278.096 433.736 284.816 430.152 288.848C426.568 292.88 421.192 298.032 414.024 304.304C402.824 278.768 388.936 259.28 372.36 245.84C356.232 232.4 335.848 225.68 311.208 225.68C286.568 225.68 264.84 233.072 246.024 247.856C227.656 262.64 213.096 281.008 202.344 302.96C192.04 324.912 183.304 349.552 176.136 376.88C164.04 423.024 157.992 468.496 157.992 513.296C157.992 585.424 169.64 640.752 192.936 679.28C216.232 717.808 250.952 737.072 297.096 737.072C322.184 737.072 344.36 729.232 363.624 713.552C383.336 697.872 398.344 675.024 408.648 645.008C419.848 657.552 425.448 673.008 425.448 691.376C425.448 714.672 410.216 735.952 379.752 755.216C349.736 774.48 315.912 784.112 278.28 784.112C213.32 784.112 164.936 761.936 133.128 717.584C101.32 673.232 85.416 615.44 85.416 544.208C85.416 471.632 99.304 403.984 127.08 341.264C157.544 272.272 199.208 223.888 252.072 196.112Z" fill="white"/>
<path d="M255.791 357.994C236.975 357.994 221.967 362.922 210.767 372.778C199.567 382.186 193.967 395.178 193.967 411.754C193.967 428.33 199.343 442.89 210.095 455.434C221.295 467.978 240.111 485.002 266.543 506.506C292.975 528.01 309.327 541.45 315.599 546.826C351.439 576.394 369.359 610.89 369.359 650.314C369.359 689.738 356.367 721.098 330.383 744.394C304.399 767.69 267.439 779.338 219.503 779.338C183.663 779.338 153.647 772.618 129.455 759.178C105.711 745.29 93.8392 725.354 93.8392 699.37C93.8392 681.002 104.591 661.066 126.095 639.562C133.711 671.818 147.375 696.01 167.087 712.138C187.247 727.818 208.079 735.658 229.583 735.658C251.535 735.658 269.455 730.282 283.343 719.53C297.679 708.778 304.847 694.666 304.847 677.194C304.847 661.962 301.935 650.09 296.111 641.578C290.735 632.618 286.479 626.122 283.343 622.09C280.207 617.61 274.159 611.562 265.199 603.946C256.239 595.882 249.295 590.058 244.367 586.474C239.887 582.442 230.927 575.274 217.487 564.97C204.047 554.218 193.967 546.154 187.247 540.778C150.063 511.658 131.471 476.714 131.471 435.946C131.471 395.178 145.359 364.266 173.135 343.21C200.911 321.706 238.991 310.954 287.375 310.954C347.855 310.954 378.095 331.786 378.095 373.45C378.095 393.162 367.791 411.082 347.183 427.21C328.367 381.066 297.903 357.994 255.791 357.994Z" fill="white"/>
<path d="M23.572 397.778C23.572 400.821 22.493 409.426 20.335 423.591C18.2323 437.756 17.181 447.578 17.181 453.056C17.181 458.479 18.2323 462.324 20.335 464.593C18.6197 466.585 16.7107 467.581 14.608 467.581C10.292 467.581 8.134 463.929 8.134 456.625C8.134 453.914 9.10233 445.835 11.039 432.389C13.031 418.943 14.027 409.287 14.027 403.422C14.027 397.501 13.446 393.379 12.284 391.055C12.8927 390.557 13.7503 390.142 14.857 389.81C16.019 389.423 17.015 389.229 17.845 389.229C19.7817 389.229 21.2203 389.893 22.161 391.221C23.1017 392.549 23.572 394.735 23.572 397.778ZM46.6486 443.677C45.1546 443.677 43.6606 443.594 42.1666 443.428C42.2219 449.57 43.3563 454.246 45.5696 457.455C47.8383 460.664 50.9923 462.269 55.0316 462.269C60.7309 462.269 64.8809 459.475 67.4816 453.886C68.8096 455.159 69.4736 456.708 69.4736 458.534C69.4736 461.633 67.7306 464.067 64.2446 465.838C60.8139 467.553 57.2173 468.411 53.4546 468.411C46.7593 468.411 41.6963 466.281 38.2656 462.02C34.8903 457.759 33.2026 452.254 33.2026 445.503C33.2026 441.464 33.8389 437.397 35.1116 433.302C36.3843 429.152 38.1273 425.362 40.3406 421.931C42.5539 418.445 45.4036 415.623 48.8896 413.465C52.3756 411.307 56.1936 410.228 60.3436 410.228C64.4936 410.228 67.6476 411.279 69.8056 413.382C72.0189 415.485 73.1256 418.196 73.1256 421.516C73.1256 426.883 70.6356 431.919 65.6556 436.622C60.7309 441.325 54.3953 443.677 46.6486 443.677ZM64.4106 424.255C64.4106 421.986 63.6913 420.133 62.2526 418.694C60.8693 417.2 58.9326 416.453 56.4426 416.453C54.0079 416.453 51.8776 417.145 50.0516 418.528C48.2809 419.911 46.8699 421.765 45.8186 424.089C43.9373 428.405 42.7753 433.081 42.3326 438.116C43.6606 438.282 44.9056 438.365 46.0676 438.365C51.7116 438.365 56.1659 436.926 59.4306 434.049C62.7506 431.116 64.4106 427.852 64.4106 424.255ZM104.251 416.453C101.651 416.453 99.3819 417.449 97.4452 419.441C95.5639 421.378 94.1529 423.84 93.2122 426.828C91.4416 432.361 90.5562 437.978 90.5562 443.677C90.5562 449.321 91.7182 453.831 94.0422 457.206C96.3662 460.581 99.6032 462.269 103.753 462.269C106.409 462.269 108.706 461.301 110.642 459.364C112.579 457.372 114.018 454.882 114.958 451.894C116.729 446.195 117.614 440.551 117.614 434.962C117.614 429.318 116.425 424.836 114.045 421.516C111.721 418.141 108.457 416.453 104.251 416.453ZM99.6862 468.411C93.9316 468.411 89.4772 466.253 86.3232 461.937C83.1692 457.621 81.5922 452.143 81.5922 445.503C81.5922 441.464 82.2286 437.397 83.5012 433.302C84.7739 429.152 86.5169 425.362 88.7302 421.931C90.9436 418.445 93.7932 415.623 97.2792 413.465C100.765 411.307 104.528 410.228 108.567 410.228C114.322 410.228 118.749 412.386 121.847 416.702C125.001 421.018 126.578 426.496 126.578 433.136C126.578 439.942 125.029 446.388 121.93 452.475C118.555 459.06 114.211 463.68 108.899 466.336C106.022 467.719 102.951 468.411 99.6862 468.411ZM177.601 466.419C175.665 467.194 173.811 467.581 172.04 467.581C170.27 467.581 168.997 466.889 168.222 465.506C167.503 464.067 167.143 462.02 167.143 459.364C167.143 456.708 167.641 451.562 168.637 443.926C169.689 436.29 170.214 430.784 170.214 427.409C170.214 423.978 169.91 421.793 169.301 420.852C168.748 419.856 167.697 419.358 166.147 419.358C164.1 419.358 161.638 421.903 158.76 426.994C155.883 432.029 153.421 437.729 151.373 444.092C149.381 450.455 148.385 455.435 148.385 459.032C148.385 462.573 148.856 465.036 149.796 466.419C147.86 467.194 146.006 467.581 144.235 467.581C142.465 467.581 141.192 466.889 140.417 465.506C139.698 464.067 139.338 462.048 139.338 459.447C139.338 456.791 139.864 451.451 140.915 443.428C141.967 435.349 142.492 428.848 142.492 423.923C142.492 418.943 141.911 415.319 140.749 413.05C141.303 412.497 142.133 412.054 143.239 411.722C144.346 411.335 145.342 411.141 146.227 411.141C148.164 411.141 149.603 411.805 150.543 413.133C151.484 414.461 151.954 416.979 151.954 420.686C151.954 424.338 151.152 430.646 149.547 439.61C155.081 425.555 159.839 416.702 163.823 413.05C165.649 411.39 167.475 410.56 169.301 410.56C175.388 410.56 178.431 415.346 178.431 424.919C178.431 429.622 178.072 434.519 177.352 439.61C184.38 420.243 190.937 410.56 197.023 410.56C203.165 410.56 206.236 415.346 206.236 424.919C206.236 427.686 205.904 431.67 205.24 436.871C204.632 442.072 204.327 446.029 204.327 448.74C204.327 456.542 205.545 461.826 207.979 464.593C206.153 466.585 204.244 467.581 202.252 467.581C197.66 467.581 195.363 462.214 195.363 451.479C195.363 447.495 195.806 442.487 196.691 436.456C197.577 430.369 198.019 426.496 198.019 424.836C198.019 423.121 197.715 421.793 197.106 420.852C196.553 419.856 195.474 419.358 193.869 419.358C191.822 419.358 189.36 421.903 186.482 426.994C183.605 432.029 181.17 437.729 179.178 444.092C177.186 450.455 176.19 455.435 176.19 459.032C176.19 462.573 176.661 465.036 177.601 466.419ZM231.586 468.162C227.824 468.162 224.836 466.308 222.622 462.601C220.464 458.894 219.385 453.803 219.385 447.329C219.385 436.926 221.709 428.156 226.357 421.018C231.061 413.825 236.843 410.228 243.704 410.228C248.408 410.228 252.309 412.082 255.407 415.789C255.85 414.074 256.403 412.856 257.067 412.137C257.787 411.418 258.866 411.058 260.304 411.058C261.798 411.058 263.182 411.777 264.454 413.216C263.458 415.872 262.601 420.326 261.881 426.579C261.162 432.832 260.802 438.669 260.802 444.092C260.802 449.459 261.079 453.637 261.632 456.625C262.241 459.558 263.237 462.186 264.62 464.51C263.016 466.557 261.134 467.581 258.976 467.581C254.218 467.581 251.838 461.743 251.838 450.068C251.838 448.187 252.06 444.894 252.502 440.191C249.625 448.214 246.194 454.882 242.21 460.194C238.282 465.506 234.74 468.162 231.586 468.162ZM244.036 415.955C239.333 415.955 235.487 418.694 232.499 424.172C229.567 429.65 228.1 436.677 228.1 445.254C228.1 449.625 228.654 453.084 229.76 455.629C230.922 458.119 232.472 459.364 234.408 459.364C236.4 459.364 238.89 457.206 241.878 452.89C244.922 448.574 247.688 443.317 250.178 437.12C252.668 430.867 254.19 425.251 254.743 420.271C250.981 417.394 247.412 415.955 244.036 415.955ZM285.331 467.581C281.015 467.581 278.857 463.929 278.857 456.625C278.857 453.582 279.438 448.436 280.6 441.187C281.762 433.938 282.343 427.99 282.343 423.342C282.343 418.694 281.762 415.263 280.6 413.05C281.983 411.777 283.671 411.141 285.663 411.141C289.702 411.141 291.722 413.244 291.722 417.449C291.722 418.943 291.362 422.014 290.643 426.662C289.979 431.31 289.536 434.492 289.315 436.207C292.303 428.35 295.65 422.069 299.358 417.366C303.12 412.607 306.219 410.228 308.654 410.228C310.037 410.228 311.061 410.892 311.725 412.22C312.444 413.548 312.804 414.904 312.804 416.287C312.804 417.67 312.638 419.081 312.306 420.52C311.476 420.354 310.701 420.271 309.982 420.271C306.44 420.271 302.871 422.346 299.275 426.496C295.733 430.646 292.939 435.211 290.892 440.191C288.9 445.171 287.904 449.293 287.904 452.558C287.904 458.313 288.955 462.324 291.058 464.593C289.342 466.585 287.433 467.581 285.331 467.581ZM336.66 468.411C329.964 468.411 324.901 466.281 321.471 462.02C318.095 457.759 316.408 452.254 316.408 445.503C316.408 441.464 317.044 437.397 318.317 433.302C319.589 429.152 321.332 425.362 323.546 421.931C325.759 418.445 328.609 415.623 332.095 413.465C335.581 411.307 339.343 410.228 343.383 410.228C351.074 410.228 354.92 412.469 354.92 416.951C354.92 419.994 353.675 422.54 351.185 424.587C349.857 421.986 348.28 419.994 346.454 418.611C344.683 417.172 342.525 416.453 339.98 416.453C337.434 416.453 335.276 417.145 333.506 418.528C331.735 419.856 330.352 421.516 329.356 423.508C328.415 425.445 327.64 427.658 327.032 430.148C325.925 434.464 325.372 438.614 325.372 442.598C325.372 449.017 326.478 453.914 328.692 457.289C330.905 460.609 334.087 462.269 338.237 462.269C343.438 462.269 347.256 459.475 349.691 453.886C350.853 455.103 351.434 456.653 351.434 458.534C351.434 461.633 349.829 464.067 346.62 465.838C343.466 467.553 340.146 468.411 336.66 468.411ZM378.427 416.038C376.103 416.038 374.25 416.647 372.866 417.864C371.483 419.026 370.791 420.631 370.791 422.678C370.791 424.725 371.455 426.524 372.783 428.073C374.167 429.622 376.491 431.725 379.755 434.381C383.02 437.037 385.04 438.697 385.814 439.361C390.241 443.013 392.454 447.274 392.454 452.143C392.454 457.012 390.85 460.886 387.64 463.763C384.431 466.64 379.866 468.079 373.945 468.079C369.519 468.079 365.811 467.249 362.823 465.589C359.891 463.874 358.424 461.411 358.424 458.202C358.424 455.933 359.752 453.471 362.408 450.815C363.349 454.799 365.037 457.787 367.471 459.779C369.961 461.716 372.534 462.684 375.19 462.684C377.902 462.684 380.115 462.02 381.83 460.692C383.601 459.364 384.486 457.621 384.486 455.463C384.486 453.582 384.127 452.115 383.407 451.064C382.743 449.957 382.218 449.155 381.83 448.657C381.443 448.104 380.696 447.357 379.589 446.416C378.483 445.42 377.625 444.701 377.016 444.258C376.463 443.76 375.356 442.875 373.696 441.602C372.036 440.274 370.791 439.278 369.961 438.614C365.369 435.017 363.072 430.701 363.072 425.666C363.072 420.631 364.788 416.813 368.218 414.212C371.649 411.556 376.352 410.228 382.328 410.228C389.798 410.228 393.533 412.801 393.533 417.947C393.533 420.382 392.261 422.595 389.715 424.587C387.391 418.888 383.629 416.038 378.427 416.038ZM17.596 511.213C19.6987 511.213 21.2203 511.905 22.161 513.288C23.1017 514.616 23.572 516.912 23.572 520.177C23.572 523.442 22.3823 532.101 20.003 546.156C17.679 560.155 16.517 570.005 16.517 575.704C16.517 576.811 16.5447 577.641 16.6 578.194C19.754 578.36 23.323 578.443 27.307 578.443C37.599 578.443 44.0453 577.724 46.646 576.285C46.48 578.498 46.1203 580.269 45.567 581.597C45.0137 582.925 44.1007 583.893 42.828 584.502C41.6107 585.111 40.3933 585.47 39.176 585.581C38.014 585.747 36.1327 585.83 33.532 585.83C30.9313 585.83 25.6747 585.249 17.762 584.087C16.268 585.138 14.7187 585.664 13.114 585.664C9.13 585.664 7.138 582.98 7.138 577.613C7.138 574.072 8.27233 565.716 10.541 552.547C12.865 539.378 14.027 530.109 14.027 524.742C14.027 519.319 13.446 515.446 12.284 513.122C13.778 511.849 15.5487 511.213 17.596 511.213ZM101.967 582.593C101.082 584.585 99.3114 585.581 96.6554 585.581C93.9994 585.581 91.8691 584.889 90.2644 583.506C88.7151 582.123 87.4424 579.826 86.4464 576.617C85.5058 573.408 84.7034 569.147 84.0394 563.835H59.7204C56.8984 570.198 55.4874 575.123 55.4874 578.609C55.4874 580.214 55.8194 581.542 56.4834 582.593C55.1554 584.585 53.2464 585.581 50.7564 585.581C48.2664 585.581 47.0214 584.198 47.0214 581.431C47.0214 579.882 47.4918 577.613 48.4324 574.625C49.4284 571.582 52.9974 563.697 59.1394 550.97C65.2814 538.188 69.0994 529.528 70.5934 524.991C72.1428 520.398 72.9174 517.438 72.9174 516.11C72.9174 514.782 72.8344 513.786 72.6684 513.122C74.4944 511.849 76.4864 511.213 78.6444 511.213C80.8024 511.213 82.5178 511.766 83.7904 512.873C85.1184 513.924 86.2528 515.999 87.1934 519.098C88.1894 522.197 89.2961 530.414 90.5134 543.749C91.7861 557.084 93.2248 566.519 94.8294 572.052C95.9914 576.147 98.3708 579.66 101.967 582.593ZM78.6444 523.829C77.3718 526.817 74.7434 532.35 70.7594 540.429C66.7754 548.508 63.9258 554.428 62.2104 558.191H83.4584C83.1818 554.705 82.7114 550.168 82.0474 544.579C81.4388 538.935 81.0238 535.366 80.8024 533.872C80.1384 529.943 79.4191 526.596 78.6444 523.829ZM131.119 511.379C137.815 511.379 142.961 512.79 146.557 515.612C150.154 518.379 151.952 521.699 151.952 525.572C151.952 529.445 150.652 533.125 148.051 536.611C145.451 540.042 141.771 542.919 137.012 545.243C147.747 546.903 153.114 552.132 153.114 560.93C153.114 565.191 151.731 569.451 148.964 573.712C143.708 581.846 135.601 585.913 124.645 585.913C119.167 585.913 115.239 585.083 112.859 583.423C110.48 581.763 109.29 579.245 109.29 575.87C109.29 572.495 110.342 563.835 112.444 549.891C114.547 535.892 115.598 526.955 115.598 523.082C115.598 519.153 115.183 515.889 114.353 513.288C121.159 512.015 126.748 511.379 131.119 511.379ZM120.578 549.559C119.084 559.408 118.337 566.214 118.337 569.977C118.337 573.684 118.559 576.368 119.001 578.028C121.104 579.411 123.732 580.103 126.886 580.103C132.143 580.103 136.348 578.36 139.502 574.874C142.656 571.388 144.233 567.515 144.233 563.254C144.233 558.993 142.878 555.507 140.166 552.796C137.51 550.029 133.36 548.563 127.716 548.397C125.282 548.95 122.902 549.338 120.578 549.559ZM121.242 544.994C128.491 544.551 133.969 542.753 137.676 539.599C141.384 536.445 143.237 532.959 143.237 529.141C143.237 525.268 142.158 522.141 140 519.762C137.898 517.383 134.633 516.193 130.206 516.193C128.878 516.193 127.135 516.387 124.977 516.774C124.922 519.983 123.677 529.39 121.242 544.994Z" fill="black"/>
</svg>
